<?xml version="1.0" standalone="no"?><!DOCTYPE svg PUBLIC "-//W3C//DTD SVG 1.1//EN" "http://www.w3.org/Graphics/SVG/1.1/DTD/svg11.dtd"><svg t="1716088369977" class="icon" viewBox="0 0 1024 1024" version="1.1" xmlns="http://www.w3.org/2000/svg" p-id="5267" xmlns:xlink="http://www.w3.org/1999/xlink" width="256" height="256"><path d="M512 959.3C213.3 959.3 64 810.2 64 512S213.3 64.7 512 64.7 960 213.8 960 512 810.7 959.3 512 959.3z" fill="#16a34a" p-id="5268" data-spm-anchor-id="a313x.search_index.0.i0.29cd3a81e50Lyi" class="selected"></path><path d="M491.5 728.5c0 9.8-9.7 17.5-19.5 14.3l-182.8-63.6c-13-4.4-21.6-16.4-21.6-30.6V312.4c0-21.9 21.6-38.3 42.2-30.7l161.1 55.8c12.3 4.7 20.4 16.4 20.5 29.6l0.1 361.4z m264.9-79.9c0 14.3-8.6 26.3-21.6 30.6L552 742.7c-9.7 3.3-19.5-4.4-19.5-14.3V367.1c0.1-13.1 8.3-24.9 20.5-29.6l161.2-55.8c20.5-7.6 42.2 8.8 42.2 30.7v336.2z m0 0" fill="#FFFFFF" p-id="5269"></path></svg>